<svg viewBox="0 0 16 16" xmlns="http://www.w3.org/2000/svg">
  <path fill-rule="evenodd" d="M5.5 3C4.67157 3 4 3.67157 4 4.5C4 5.32843 4.67157 6 5.5 6C6.32843 6 7 5.32843 7 4.5C7 3.67157 6.32843 3 5.5 3ZM1 5H3.05001C3.28164 6.14112 4.29052 7 5.5 7C6.70948 7 7.71836 6.14112 7.94999 5H15V4H7.94999C7.71836 2.85888 6.70948 2 5.5 2C4.29052 2 3.28164 2.85888 3.05001 4H1V5Z M1 11V12H8.05001C8.28164 13.1411 9.29052 14 10.5 14C11.7095 14 12.7184 13.1411 12.95 12H15V11H12.95C12.7184 9.85888 11.7095 9 10.5 9C9.29052 9 8.28164 9.85888 8.05001 11H1ZM10.5 10C9.67157 10 9 10.6716 9 11.5C9 12.3284 9.67157 13 10.5 13C11.3284 13 12 12.3284 12 11.5C12 10.6716 11.3284 10 10.5 10Z" fill="black" fill-opacity="0.8" />
</svg>
